<?xml version="1.0" encoding="UTF-8"?>
<svg xmlns="http://www.w3.org/2000/svg" version="1.1" viewBox="0 0 1519.0225 950">
  <defs>
    <style>
      .cls-1 {
        fill: #009cde;
      }

      .cls-2 {
        fill: #84bd00;
      }
    </style>
  </defs>
  <!-- Generator: Adobe Illustrator 28.6.0, SVG Export Plug-In . SVG Version: 1.2.0 Build 709)  -->
  <g>
    <g id="Layer_1">
      <g>
        <path d="M262.465,710.4938c-10.6927,13.3668-33.6072,26.7336-61.1054,26.7336-30.1704,0-52.3204-19.8581-52.3204-50.7931,0-33.6072,25.5886-50.4108,65.3068-53.0849,16.4213-1.145,32.4604-1.5273,47.3544-1.5273v-8.0205c0-30.9331-12.6022-49.6463-42.7727-49.6463-17.9486,0-33.9895,4.9641-48.5013,12.9845l-8.0205-25.2063c19.0954-11.4573,38.9536-15.6568,62.6327-15.6568,43.1549,0,71.0335,27.4963,71.0335,76.7622v110.3694h-33.6072v-22.9145ZM261.7004,688.3438v-33.9895c-15.2763.7646-28.2609,1.9095-41.2454,3.4368-21.3854,2.2918-38.189,8.785-38.189,28.6432,0,17.1859,10.6927,25.5868,29.0236,25.5868,19.86,0,37.8086-9.9281,50.4108-23.6772Z"/>
        <path d="M396.8309,670.7756c-3.4368,4.5837-5.7286,9.5477-5.7286,15.2763,0,9.1654,6.1109,12.9845,20.6227,14.1314l37.8086,3.0545c35.1363,2.6741,59.5781,14.5118,59.5781,46.5917,0,40.1004-50.0304,66.0695-102.7331,66.0695-44.2999,0-80.199-15.2763-80.199-47.7367,0-27.4982,27.8786-40.1004,51.5577-46.5936-9.93-4.9641-17.9505-13.7472-17.9505-26.7317,0-14.5137,9.5477-22.9145,20.2404-28.2609-24.8241-9.1673-41.6277-29.79-41.6277-56.904,0-36.2813,32.08-63.3954,72.9449-63.3954,9.1654,0,17.5663,1.5273,25.5868,3.8191h68.3613v25.5868h-32.08c6.8736,9.93,11.075,21.3873,11.075,33.9895,0,37.044-31.6977,62.2504-72.9431,62.2504-4.9659,0-9.93-.3823-14.5137-1.1468ZM397.9778,726.9151c-17.5682,8.4027-38.5732,17.9505-38.5732,37.4282,0,19.0936,18.7132,27.4963,48.5013,27.4963,31.6995,0,68.3613-12.6022,68.3613-38.1909,0-17.9486-19.8581-22.15-40.8631-23.6772l-37.4263-3.0564ZM453.735,609.2898c0-23.6772-17.9486-38.1909-42.3904-38.1909s-42.3922,13.3668-42.3922,38.1909,18.7132,38.1909,42.3922,38.1909,42.3904-14.5137,42.3904-38.1909Z"/>
        <path d="M557.7917,474.0964c12.9845,0,21.7677,9.93,21.7677,21.7677s-8.7832,21.7695-21.7677,21.7695-21.7695-9.93-21.7695-21.7695,8.785-21.7677,21.7695-21.7677ZM540.6058,733.4083v-183.3125h34.3699v183.3125h-34.3699Z"/>
        <path d="M664.2448,686.052c0,14.5118,5.3482,22.9145,19.4777,22.9145,6.1109,0,11.4573-.7646,17.1859-2.2918l1.5273,25.5886c-8.0205,2.6722-17.1859,4.1995-27.8786,4.1995-32.08,0-44.6822-21.3854-44.6822-48.8836v-223.7952h34.3699v222.2679Z"/>
        <path d="M748.0648,812.08l27.1159-76.7622-67.2144-185.222h35.5168l48.119,150.0875,47.3563-150.0875h35.5168l-92.8031,261.9842h-33.6072Z"/>
        <path d="M946.8665,737.2274c-17.9486,0-42.7727-4.5837-56.5217-11.075l5.7286-27.1159c12.9845,5.7286,30.5527,11.075,51.1754,11.075,21.7677,0,38.9536-7.6382,38.9536-24.8222,0-16.4232-17.1859-24.4418-36.6617-32.08-25.9709-10.3123-56.5217-24.4418-56.5217-56.5217,0-35.5168,31.6977-50.4108,65.3049-50.4108,19.0954,0,38.1909,4.5818,53.0849,12.22l-5.7286,25.969c-14.8941-6.8736-30.935-11.075-47.3563-11.075-17.5682,0-31.6977,4.9641-31.6977,21.3873,0,14.8941,19.8581,21.3854,34.3699,28.2609,13.7491,6.4913,58.8136,20.6227,58.8136,58.049,0,34.3718-31.3154,56.1395-72.9431,56.1395Z"/>
        <path d="M1074.3608,812.08l27.1159-76.7622-67.2144-185.222h35.5168l48.119,150.0875,47.3563-150.0875h35.5168l-92.8031,261.9842h-33.6072Z"/>
        <path d="M1279.2105,737.2274c-17.9486,0-42.7727-4.5837-56.5217-11.075l5.7286-27.1159c12.9845,5.7286,30.5527,11.075,51.1754,11.075,21.7677,0,38.9536-7.6382,38.9536-24.8222,0-16.4232-17.1859-24.4418-36.6617-32.08-25.9709-10.3123-56.5217-24.4418-56.5217-56.5217,0-35.5168,31.6977-50.4108,65.3049-50.4108,19.0954,0,38.1909,4.5818,53.0849,12.22l-5.7286,25.969c-14.8941-6.8736-30.935-11.075-47.3563-11.075-17.5682,0-31.6977,4.9641-31.6977,21.3873,0,14.8941,19.8581,21.3854,34.3699,28.2609,13.7491,6.4913,58.8136,20.6227,58.8136,58.049,0,34.3718-31.3154,56.1395-72.9431,56.1395Z"/>
      </g>
      <path class="cls-1" d="M1020.8655,306.6273c43.4476,0,78.6689-35.2212,78.6689-78.6689s-35.2213-78.6689-78.6689-78.6689-78.6689,35.2213-78.6689,78.6689,35.2213,78.6689,78.6689,78.6689"/>
      <path class="cls-2" d="M821.724,511.0282c79.946,0,144.755-64.8091,144.755-144.7551s-64.809-144.755-144.755-144.755-144.7551,64.8091-144.7551,144.755,64.8091,144.7551,144.7551,144.7551"/>
    </g>
  </g>
</svg>