<svg width="216" height="54" viewBox="0 0 216 54" fill="none" xmlns="http://www.w3.org/2000/svg">
	<path fill-rule="evenodd" clip-rule="evenodd" d="M213.746 13.7916C212.503 13.7916 211.496 14.7863 211.496 16.0133C211.496 17.2404 212.503 18.2351 213.746 18.2351C214.989 18.2351 215.996 17.2404 215.996 16.0133C215.996 14.7863 214.989 13.7916 213.746 13.7916ZM215.206 14.5697C215.592 14.9523 215.804 15.4732 215.794 16.0131C215.798 16.5512 215.584 17.0685 215.199 17.4497C214.814 17.8309 214.291 18.0443 213.746 18.0423C213.2 18.0504 212.673 17.839 212.287 17.4564C211.901 17.0739 211.689 16.553 211.699 16.0131C211.695 15.475 211.909 14.9577 212.294 14.5765C212.678 14.1953 213.201 13.9819 213.746 13.9839C214.293 13.9758 214.82 14.1872 215.206 14.5697ZM212.861 14.8132H213.896C214.146 14.8005 214.392 14.8856 214.579 15.0502C214.701 15.166 214.769 15.3271 214.766 15.4946C214.765 15.8359 214.509 16.124 214.166 16.1685L214.916 17.0794H214.496L213.836 16.2203H213.244V17.0794H212.899L212.861 14.8132ZM214.414 15.5243C214.414 15.7835 214.189 15.9242 213.866 15.9242L213.206 15.939V15.1318H213.881C214.211 15.1318 214.414 15.2873 214.414 15.5243Z" fill="#440099"/>
	<path d="M136.378 53.5686H134.998V44.2816H136.378V45.8961C137.003 44.7482 138.231 44.0463 139.55 44.0817C141.8 44.0817 143.098 45.5628 143.098 47.7846V53.5538H141.748V48.1401C141.748 46.4219 140.818 45.3407 139.183 45.3407C138.414 45.3325 137.676 45.6425 137.149 46.1954C136.622 46.7482 136.353 47.4937 136.408 48.2512L136.378 53.5686Z" fill="#440099"/>
	<path fill-rule="evenodd" clip-rule="evenodd" d="M152.72 51.265C151.99 52.1043 150.923 52.5837 149.803 52.5758H149.823C148.054 52.5752 146.608 51.1823 146.563 49.4357H153.905C153.916 49.2927 153.916 49.1492 153.905 49.0062C153.905 46.3031 152.323 44.0813 149.585 44.0813C147.02 44.0813 145.138 46.2364 145.138 48.9321C145.064 50.1909 145.518 51.4242 146.393 52.342C147.269 53.2598 148.489 53.781 149.765 53.783C151.242 53.8167 152.651 53.1742 153.583 52.0426L152.72 51.265ZM149.548 45.2446C151.4 45.2446 152.36 46.7184 152.503 48.4143H146.548C146.72 46.5999 147.943 45.2446 149.548 45.2446Z" fill="#440099"/>
	<path d="M157.587 50.9245C157.524 51.3499 157.667 51.7798 157.974 52.0846C158.281 52.3893 158.716 52.533 159.147 52.4724C159.613 52.4754 160.072 52.3634 160.482 52.1465V53.3314C159.973 53.6021 159.403 53.7398 158.825 53.7314C157.325 53.7314 156.207 52.9908 156.207 51.1097V45.5035H154.917V44.2815H156.207V41.4747H157.587V44.2815H160.497V45.5035H157.557L157.587 50.9245Z" fill="#440099"/>
	<path d="M168.335 44.2446L165.845 51.7319L163.407 44.2816H161.937L165.185 53.6426H166.407L168.905 46.3108L171.402 53.6426H172.595L175.865 44.2816H174.425L171.987 51.7319L169.49 44.2446H168.335Z" fill="#440099"/>
	<path fill-rule="evenodd" clip-rule="evenodd" d="M178.116 52.3656C179.02 53.2763 180.258 53.7876 181.549 53.7832C184.212 53.7993 186.385 51.6847 186.409 49.0556C186.432 46.4266 184.296 44.2748 181.634 44.2449C178.971 44.215 176.787 46.3183 176.749 48.9472C176.719 50.222 177.212 51.4549 178.116 52.3656ZM179.07 46.3878C179.711 45.7059 180.607 45.3139 181.55 45.3036C182.499 45.3245 183.4 45.7231 184.048 46.409C184.696 47.095 185.037 48.0102 184.992 48.9472C185.047 49.8765 184.715 50.7876 184.071 51.4678C183.428 52.1481 182.53 52.5379 181.587 52.5465C180.641 52.5236 179.743 52.1249 179.098 51.4406C178.453 50.7563 178.115 49.844 178.16 48.9102C178.1 47.9817 178.429 47.0697 179.07 46.3878Z" fill="#440099"/>
	<path d="M189.897 53.5688H188.517V44.2818H189.897V46.7035C190.468 45.1457 191.969 44.1109 193.647 44.1189V45.6001H193.542C191.517 45.6001 189.867 47.0812 189.867 49.8584L189.897 53.5688Z" fill="#440099"/>
	<path d="M195.297 40.4526V53.5684H196.677V51.1392L198.552 49.2359L201.867 53.5684H203.524L199.504 48.2658L203.397 44.2814H201.672L196.677 49.5099V40.4526H195.297Z" fill="#440099"/>
	<path d="M208.196 53.7832C206.801 53.76 205.453 53.2807 204.364 52.4205L205.061 51.4281C205.971 52.1591 207.099 52.5754 208.271 52.613C209.381 52.613 210.191 52.0428 210.191 51.1319C210.191 50.1913 209.096 49.8358 207.881 49.4952C206.426 49.0804 204.814 48.5768 204.814 46.8735C204.814 45.2738 206.134 44.2148 207.971 44.2148C209.155 44.2362 210.307 44.5908 211.294 45.2368L210.671 46.281C209.865 45.7292 208.914 45.4182 207.934 45.3849C206.839 45.3849 206.134 45.9552 206.134 46.7328C206.134 47.6141 207.289 47.9547 208.526 48.3398C209.959 48.7694 211.526 49.3248 211.526 50.9911C211.526 52.7537 210.079 53.7757 208.226 53.7757" fill="#440099"/>
	<path d="M62.9985 9.34821H82.4982V12.0884H65.9985V21.1976H80.7357V23.9377H66.0435V33.2691H82.7082V36.0093H62.9985V9.34821Z" fill="#440099"/>
	<path d="M93.2302 25.9889L85.7304 16.3169H89.1278L95.0302 23.9375L100.925 16.3169H104.248L96.6877 25.9445L104.533 36.009H101.098L94.9252 27.9737L88.7153 36.009H85.4004L93.2302 25.9889Z" fill="#440099"/>
	<path d="M109.595 30.825V18.9756H106.813V16.3836H109.595V10.4589H112.595V16.3836H118.918V18.9756H112.595V30.4103C112.595 32.8098 113.945 33.6837 115.948 33.6837C116.954 33.6907 117.947 33.4569 118.843 33.0023V35.5129C117.734 36.083 116.499 36.3707 115.25 36.3498C112.025 36.3498 109.595 34.7871 109.595 30.825Z" fill="#440099"/>
	<path d="M122.998 16.3167H125.998V21.4563C127.497 18.1829 130.355 15.8205 134.135 15.976V19.1383H133.91C129.545 19.1383 125.998 22.2191 125.998 28.166V36.0088H122.998L122.998 16.3167Z" fill="#440099"/>
	<path fill-rule="evenodd" clip-rule="evenodd" d="M152.059 31.1361C150.474 32.9222 148.179 33.9364 145.774 33.9133C142.264 33.9133 139.174 31.5138 138.747 27.3665H154.564C154.598 27.0244 154.613 26.6808 154.609 26.3371C154.609 20.5458 151.212 15.9023 145.309 15.9023C139.797 15.9023 135.747 20.4717 135.747 26.1816C135.747 32.3063 140.247 36.4683 145.699 36.4758C148.868 36.5565 151.898 35.1904 153.912 32.7728L152.059 31.1361ZM145.234 18.3609C149.164 18.3609 151.249 21.4418 151.594 25.0262H138.754C139.174 21.1752 141.799 18.3609 145.234 18.3609Z" fill="#440099"/>
	<path d="M158.689 16.3172H161.689V19.635C163.002 17.6873 164.772 15.9321 168.132 15.9321C170.872 15.8335 173.401 17.3819 174.529 19.8498C175.958 17.3869 178.622 15.8777 181.497 15.9025C186.086 15.9025 188.906 18.9463 188.906 23.8193V36.0093H185.906V24.5081C185.906 20.7015 183.979 18.5834 180.739 18.5834C177.739 18.5834 175.219 20.8051 175.219 24.671V36.0093H172.287V24.434C172.287 20.7311 170.322 18.5686 167.157 18.5686C163.992 18.5686 161.607 21.1532 161.607 24.7747V36.0093H158.607L158.689 16.3172Z" fill="#440099"/>
	<path fill-rule="evenodd" clip-rule="evenodd" d="M208.953 31.1364C207.367 32.9244 205.068 33.9389 202.661 33.9136C199.151 33.9136 196.068 31.5141 195.641 27.3742H211.458C211.496 26.9151 211.496 26.6114 211.496 26.3448C211.496 20.5534 208.098 15.91 202.203 15.91C196.683 15.91 192.634 20.4794 192.634 26.1893C192.634 32.3214 197.111 36.4761 202.586 36.4761C205.755 36.5568 208.785 35.1907 210.798 32.7731L208.953 31.1364ZM202.121 18.3609C206.059 18.3609 208.143 21.4418 208.488 25.0262H195.641C196.069 21.1751 198.694 18.3609 202.121 18.3609Z" fill="#440099"/>
	<path fill-rule="evenodd" clip-rule="evenodd" d="M41.9993 1.20158V8.60744C41.9993 9.01645 41.6635 9.34802 41.2493 9.34802H9.74984C9.33563 9.34802 8.99985 9.67959 8.99985 10.0886V25.278C9.00079 26.4587 8.52585 27.5912 7.67987 28.4255L0 36.0091V1.20158C0 0.79257 0.335781 0.460999 0.749988 0.460999H41.2493C41.6635 0.460999 41.9993 0.79257 41.9993 1.20158ZM18.7494 27.122H35.3616C35.7758 27.122 36.1116 26.7904 36.1116 26.3814V18.9755C36.1116 18.5665 35.7758 18.2349 35.3616 18.2349H18.7494C18.3352 18.2349 17.9994 18.5665 17.9994 18.9755V26.3814C17.9994 26.7904 18.3352 27.122 18.7494 27.122ZM7.67987 43.5928L0 36.0092H41.2493C41.6635 36.0092 41.9993 36.3408 41.9993 36.7498V44.1557C41.9993 44.5647 41.6635 44.8963 41.2493 44.8963H10.8673C9.67167 44.8972 8.5248 44.4282 7.67987 43.5928Z" fill="url(#paint0_linear_158_12425)"/>
	<defs>
		<linearGradient id="paint0_linear_158_12425" x1="7.51006e-05" y1="0.460999" x2="7.51006e-05" y2="44.8962" gradientUnits="userSpaceOnUse">
			<stop stop-color="#440099"/>
			<stop offset="0.3309" stop-color="#3E0090"/>
			<stop offset="0.8793" stop-color="#2C0076"/>
			<stop offset="0.9957" stop-color="#280070"/>
		</linearGradient>
	</defs>
</svg>
